<?xml version="1.0" encoding="UTF-8"?><svg id="Layer_1" xmlns="http://www.w3.org/2000/svg" width="280" height="123.25" viewBox="0 0 280 123.25"><defs><style>.cls-1{fill:#000;stroke-width:0px;}</style></defs><path class="cls-1" d="M0,76.97h9.32l11.1,18.8c.58,1.05,2.57,4.76,2.57,4.76h.1s-.1-4.5-.1-5.81v-17.75h9.06v37.44h-9.32l-11-18.54c-.63-1-2.67-5.03-2.67-5.03h-.1s.1,4.82.1,6.13v17.44H0v-37.44Z"/><path class="cls-1" d="M35.45,100.95c0-8.01,5.6-14.14,13.77-14.14,3.82,0,6.86,1.26,9.16,3.35,3.19,2.93,4.76,7.59,4.71,13.04h-19.27c.52,3.61,2.51,5.86,6.02,5.86,2.25,0,3.72-1,4.45-2.67h8.33c-.58,2.41-2.15,4.71-4.5,6.34-2.25,1.57-4.97,2.46-8.38,2.46-8.85,0-14.3-6.13-14.3-14.24ZM54.46,98.12c-.31-3.19-2.31-5.24-5.08-5.24-3.25,0-4.92,2.04-5.5,5.24h10.58Z"/><path class="cls-1" d="M67.55,107.33v-14.4h-3.56v-5.34h3.56v-8.48h8.33v8.48h4.87v5.34h-4.87v12.57c0,2.09,1.15,2.62,2.98,2.62.73,0,1.57-.05,1.88-.05v6.23c-.73.21-2.36.42-4.66.42-4.97,0-8.54-1.62-8.54-7.38Z"/><path class="cls-1" d="M84.36,76.97h27.85v7.8h-18.59v7.59h15.55v7.49h-15.55v14.56h-9.27v-37.44Z"/><path class="cls-1" d="M111.8,101.05c0-8.06,5.76-14.19,14.35-14.19s14.3,6.13,14.3,14.19-5.66,14.19-14.3,14.19-14.35-6.13-14.35-14.19ZM131.8,101.05c0-4.87-1.99-8.17-5.71-8.17s-5.66,3.3-5.66,8.17,1.94,8.12,5.66,8.12,5.71-3.25,5.71-8.12Z"/><path class="cls-1" d="M143.12,105.19v-17.59h8.48v15.81c0,2.93,1.31,4.56,4.03,4.56,2.93,0,4.71-2.2,4.71-5.39v-14.97h8.54v26.81h-8.17v-3.3h-.16c-1.94,2.62-4.29,4.08-8.01,4.08-6.18,0-9.42-4.03-9.42-10Z"/><path class="cls-1" d="M172.97,87.6h8.22v3.67h.16c1.99-2.88,4.55-4.45,8.27-4.45,5.86,0,9.32,4.19,9.32,10.16v17.44h-8.53v-15.71c0-2.83-1.41-4.76-4.19-4.76s-4.71,2.36-4.71,5.65v14.82h-8.53v-26.81Z"/><path class="cls-1" d="M201.61,101c0-8.38,4.82-14.19,11.73-14.19,3.77,0,5.92,1.57,7.49,3.82h.16v-13.67h8.54v37.44h-8.17v-3.61h-.1c-1.62,2.78-4.4,4.45-7.9,4.45-6.86,0-11.73-5.29-11.73-14.24ZM221.19,101c0-4.5-1.83-7.75-5.55-7.75-3.4,0-5.39,3.14-5.39,7.64s1.99,7.59,5.29,7.59c3.56,0,5.66-3.09,5.66-7.49Z"/><path class="cls-1" d="M233.61,87.6h8.17v4.19h.16c1.89-3.19,4.09-4.61,7.33-4.61.79,0,1.31.05,1.68.21v7.33h-.21c-5.24-.73-8.59,1.83-8.59,7.64v12.04h-8.53v-26.81Z"/><path class="cls-1" d="M255.08,116.6h2.93c2.51,0,3.51-.99,3.51-2.83,0-1.15-.52-2.72-1.62-5.55l-7.91-20.63h9.01l3.61,11.41c.84,2.62,1.67,6.18,1.67,6.18h.1s.73-3.56,1.57-6.18l3.51-11.41h8.54l-9.27,27.17c-2.15,6.28-4.71,8.48-10.11,8.48h-5.55v-6.65Z"/><path class="cls-1" d="M139.92,66.15c-7-1.03-13.03-4.53-17.35-9.5-2.48-2.84-4.39-6.17-5.58-9.8-.72.18-1.48.28-2.25.28-.19,0-.38,0-.56-.02.99,3.22,2.5,6.24,4.42,8.95,4.76,6.7,12.16,11.51,20.91,12.81,4.72.69,9.33.29,13.61-1.03-.5-.78-.9-1.62-1.17-2.52-3.8,1.11-7.87,1.43-12.03.83Z"/><path class="cls-1" d="M158.05,20.05c.14,0,.28,0,.4.03.5.07.99.11,1.49.11,4.96,0,9.25-3.71,9.97-8.63.39-2.66-.28-5.32-1.89-7.49-1.61-2.17-3.96-3.57-6.63-3.96-.49-.07-.99-.1-1.48-.1-4.96,0-9.25,3.71-9.97,8.62-.39,2.66.28,5.32,1.89,7.49.09.14.2.27.3.39.76.94.83,2.27.16,3.27-.51.78-1.39,1.23-2.28,1.23-.27,0-.53-.04-.79-.12-.83-.25-1.7-.44-2.57-.57-.86-.12-1.74-.18-2.61-.18-8.37,0-15.7,5.95-17.43,14.17-.24,1.17-1.2,2.04-2.38,2.17-.11,0-.21,0-.31,0-1.06,0-2.05-.61-2.5-1.6-.22-.46-.48-.9-.79-1.31-1.17-1.57-2.88-2.6-4.82-2.88-.36-.05-.72-.07-1.08-.07-3.61,0-6.72,2.7-7.25,6.28-.28,1.94.2,3.87,1.38,5.44,1.17,1.58,2.88,2.6,4.82,2.88.18.03.36.05.53.06.18,0,.37.02.54.02,2.84,0,5.46-1.68,6.66-4.28.46-.98,1.44-1.6,2.5-1.6.11,0,.21,0,.31.02,1.18.13,2.14,1.01,2.39,2.17,1.53,7.29,7.5,12.91,14.86,13.99.86.13,1.74.19,2.61.19,2.38,0,4.69-.48,6.89-1.41.35-.15.72-.22,1.08-.22.77,0,1.52.32,2.06.93.79.89.92,2.18.32,3.2-.52.9-.86,1.88-1.01,2.9-.17,1.17-.08,2.32.21,3.39.85,3.06,3.43,5.49,6.75,5.97.4.06.82.09,1.22.09,4.06,0,7.56-3.04,8.16-7.06.66-4.5-2.47-8.71-6.97-9.38-.4-.06-.81-.08-1.21-.08-.53,0-1.07.06-1.6.16-.18.04-.37.06-.55.06-.96,0-1.88-.51-2.39-1.38-.59-1.03-.45-2.32.33-3.2,2.32-2.61,3.82-5.8,4.31-9.21.7-4.71-.49-9.4-3.33-13.23-.68-.91-1.43-1.75-2.25-2.5-.89-.82-1.1-2.11-.58-3.2.46-.96,1.46-1.56,2.51-1.56ZM114.75,42.67c-2.61,0-4.72-2.11-4.72-4.72s2.11-4.72,4.72-4.72,4.72,2.11,4.72,4.72-2.11,4.72-4.72,4.72ZM161.61,57.21c2.85,0,5.15,2.31,5.15,5.15s-2.31,5.15-5.15,5.15-5.15-2.31-5.15-5.15,2.31-5.15,5.15-5.15ZM159.53,40.22c-1.26,8.54-9.2,14.45-17.73,13.19-8.54-1.26-14.45-9.19-13.19-17.73,1.25-8.54,9.19-14.44,17.73-13.19,8.53,1.26,14.44,9.2,13.19,17.73ZM152.95,10.04c0-3.86,3.13-6.99,6.99-6.99s6.99,3.12,6.99,6.99-3.12,6.99-6.99,6.99-6.99-3.13-6.99-6.99Z"/><path class="cls-1" d="M147.14,37.52c0,.58.04,2.56.04,2.56h-.04s-.88-1.63-1.14-2.09l-4.89-8.28h-4.1v16.5h3.99v-7.69c0-.57-.05-2.7-.05-2.7h.05s.9,1.78,1.17,2.22l4.84,8.17h4.11v-16.5h-3.99v7.82Z"/></svg>