<?xml version="1.0" encoding="UTF-8"?><svg id="Layer_1" xmlns="http://www.w3.org/2000/svg" width="310" height="164" viewBox="0 0 310 164"><defs><style>.cls-1{fill:none;}.cls-1,.cls-2{stroke-width:0px;}.cls-2{fill:#fff;}</style></defs><path class="cls-2" d="M15,85.06h9.32l11.1,18.8c.58,1.05,2.57,4.76,2.57,4.76h.1s-.1-4.5-.1-5.81v-17.75h9.06v37.44h-9.32l-11-18.53c-.63-1-2.67-5.03-2.67-5.03h-.1s.1,4.82.1,6.13v17.44h-9.06v-37.44ZM50.45,109.04c0-8.01,5.6-14.14,13.77-14.14,3.82,0,6.86,1.26,9.16,3.35,3.19,2.93,4.76,7.59,4.71,13.04h-19.27c.52,3.61,2.51,5.86,6.02,5.86,2.25,0,3.72-1,4.45-2.67h8.33c-.58,2.41-2.15,4.71-4.5,6.34-2.25,1.57-4.97,2.46-8.38,2.46-8.85,0-14.3-6.12-14.3-14.24ZM69.46,106.22c-.31-3.19-2.31-5.24-5.08-5.24-3.25,0-4.92,2.04-5.5,5.24h10.58ZM82.55,115.43v-14.4h-3.56v-5.34h3.56v-8.48h8.33v8.48h4.87v5.34h-4.87v12.57c0,2.09,1.15,2.62,2.98,2.62.73,0,1.57-.05,1.88-.05v6.23c-.73.21-2.36.42-4.66.42-4.97,0-8.54-1.62-8.54-7.38ZM99.36,85.06h27.85v7.8h-18.59v7.59h15.55v7.49h-15.55v14.56h-9.27v-37.44ZM126.8,109.15c0-8.06,5.76-14.19,14.35-14.19s14.3,6.13,14.3,14.19-5.66,14.19-14.3,14.19-14.35-6.12-14.35-14.19ZM146.8,109.15c0-4.87-1.99-8.17-5.71-8.17s-5.66,3.3-5.66,8.17,1.94,8.12,5.66,8.12,5.71-3.25,5.71-8.12ZM158.12,113.28v-17.59h8.48v15.81c0,2.93,1.31,4.55,4.03,4.55,2.93,0,4.71-2.2,4.71-5.39v-14.98h8.54v26.81h-8.17v-3.3h-.16c-1.94,2.62-4.29,4.08-8.01,4.08-6.18,0-9.42-4.03-9.42-10ZM187.97,95.69h8.22v3.67h.16c1.99-2.88,4.55-4.45,8.27-4.45,5.86,0,9.32,4.19,9.32,10.16v17.44h-8.53v-15.71c0-2.83-1.41-4.77-4.19-4.77s-4.71,2.36-4.71,5.66v14.82h-8.53v-26.81ZM216.61,109.1c0-8.38,4.82-14.19,11.73-14.19,3.77,0,5.92,1.57,7.49,3.82h.16v-13.67h8.54v37.44h-8.17v-3.61h-.1c-1.62,2.78-4.4,4.45-7.9,4.45-6.86,0-11.73-5.29-11.73-14.24ZM236.19,109.1c0-4.5-1.83-7.75-5.55-7.75-3.4,0-5.39,3.14-5.39,7.64s1.99,7.59,5.29,7.59c3.56,0,5.66-3.09,5.66-7.49ZM248.61,95.69h8.17v4.19h.16c1.89-3.19,4.09-4.61,7.33-4.61.79,0,1.31.05,1.68.21v7.33h-.21c-5.24-.73-8.59,1.83-8.59,7.65v12.04h-8.53v-26.81ZM270.08,124.7h2.93c2.51,0,3.51-.99,3.51-2.83,0-1.15-.52-2.72-1.62-5.55l-7.91-20.63h9.01l3.61,11.42c.84,2.62,1.67,6.18,1.67,6.18h.1s.73-3.56,1.57-6.18l3.51-11.42h8.54l-9.27,27.17c-2.15,6.28-4.71,8.48-10.11,8.48h-5.55v-6.65ZM87.69,148.81h1.67c.12,1.83,1.24,2.94,3.5,2.94,1.7,0,2.76-.88,2.76-2.28,0-1.25-.91-1.72-3.05-2.51-1.87-.69-3.27-1.45-3.27-3.4s1.53-3.3,4.06-3.3c3,0,4.32,1.68,4.45,3.65h-1.58c-.12-1.37-1.09-2.38-2.91-2.38-1.52,0-2.39.74-2.39,1.95,0,1.06.76,1.5,2.62,2.19,2.16.81,3.78,1.52,3.78,3.76,0,2.08-1.76,3.61-4.49,3.61-3.47,0-5.1-1.95-5.15-4.24ZM98.7,149.19c0-2.92,1.92-5.48,4.85-5.48,2.34,0,3.45,1.54,3.45,3.65,0,.43-.05.89-.12,1.35h-6.67c-.02.16-.02.33-.02.49,0,1.67.81,2.61,2.39,2.61,1.09,0,2.03-.51,2.44-1.57h1.5c-.64,1.85-2.19,2.79-4.03,2.79-2.54,0-3.81-1.68-3.81-3.84ZM100.4,147.63h5.05c.26-1.6-.36-2.77-2.01-2.77s-2.62,1.29-3.04,2.77ZM108.05,149.33c0-3.07,1.92-5.63,4.87-5.63,2.28,0,3.32,1.42,3.37,3.1h-1.47c-.02-1.11-.66-1.88-2.03-1.88-2.1,0-3.22,2.28-3.22,4.46,0,1.5.71,2.42,2.18,2.42,1.29,0,2.26-.76,2.67-2.16h1.49c-.56,2.19-2.15,3.38-4.18,3.38-2.34,0-3.68-1.52-3.68-3.7ZM117.45,149.88l1.17-5.97h1.48l-1.17,5.96c-.18.99.05,1.88,1.47,1.88s2.41-.99,2.67-2.28l1.09-5.56h1.52l-1.75,8.88h-1.45l.23-1.27h-.03c-.66.91-1.6,1.49-2.77,1.49-1.85,0-2.82-1.22-2.46-3.12ZM127.85,143.92h1.47l-.31,1.57h.05c.61-1.02,1.5-1.67,2.64-1.67.28,0,.48.03.56.07l-.18,1.47h-.07c-.15-.05-.31-.1-.61-.1-1.32,0-2.46.86-2.81,2.61l-.97,4.92h-1.5l1.73-8.86ZM132.24,149.19c0-2.92,1.91-5.48,4.85-5.48,2.34,0,3.45,1.54,3.45,3.65,0,.43-.05.89-.12,1.35h-6.67c-.02.16-.02.33-.02.49,0,1.67.81,2.61,2.39,2.61,1.09,0,2.03-.51,2.44-1.57h1.5c-.64,1.85-2.19,2.79-4.03,2.79-2.54,0-3.81-1.68-3.81-3.84ZM133.94,147.63h5.05c.26-1.6-.36-2.77-2.01-2.77s-2.62,1.29-3.04,2.77ZM148.06,140.51h1.5l-.63,3.24c-.08.43-.2.96-.3,1.35h.03c.74-.89,1.68-1.39,2.79-1.39,2.01,0,3.17,1.45,3.17,3.66,0,2.99-1.62,5.66-4.36,5.66-1.44,0-2.36-.64-2.81-1.7h-.07l-.26,1.45h-1.47l2.39-12.28ZM153.08,147.39c0-1.48-.71-2.42-2.03-2.42-2.08,0-3.2,2.08-3.2,4.11,0,1.55.73,2.76,2.23,2.76,1.95,0,3-2.39,3-4.44ZM154.22,155.64l.26-1.24h.07c.17.1.48.18.89.18.58,0,1.01-.28,1.47-1.11,0-.03.56-1.04.54-1.14l-1.65-8.42h1.55l.86,4.84c.18.99.3,2.48.3,2.48h.05s.54-1.32,1.1-2.34l2.72-4.97h1.65l-5.6,9.69c-1.07,1.86-1.85,2.26-2.95,2.26-.49,0-.97-.08-1.27-.23ZM170.41,140.51h4.08c3.12,0,4.74,2.1,4.74,4.9,0,4.52-2.39,7.38-6.73,7.38h-4.47l2.39-12.28ZM172.62,151.35c3.48,0,4.94-2.57,4.94-5.92,0-2.06-1.01-3.51-3.3-3.51h-2.43l-1.87,9.44h2.66ZM180.1,149.19c0-2.92,1.92-5.48,4.85-5.48,2.34,0,3.45,1.54,3.45,3.65,0,.43-.05.89-.11,1.35h-6.67c-.02.16-.02.33-.02.49,0,1.67.81,2.61,2.39,2.61,1.09,0,2.03-.51,2.44-1.57h1.5c-.64,1.85-2.19,2.79-4.03,2.79-2.54,0-3.81-1.68-3.81-3.84ZM181.8,147.63h5.05c.27-1.6-.36-2.77-2.01-2.77s-2.63,1.29-3.04,2.77ZM189.13,150.08h1.54c.12,1.3,1.02,1.75,2.36,1.75,1.41,0,1.97-.69,1.97-1.5,0-.71-.6-1.11-2-1.54-1.65-.51-2.77-1.01-2.81-2.52-.03-1.45,1.22-2.56,3.27-2.56,2.28,0,3.4,1.07,3.45,2.59h-1.52c-.02-.96-.66-1.44-1.93-1.44s-1.73.49-1.73,1.24.69,1.04,2.08,1.47c1.45.46,2.71,1.07,2.74,2.67.02,1.67-1.41,2.77-3.55,2.77-2.59,0-3.75-1.19-3.86-2.94ZM199.59,143.92h1.5l-1.73,8.86h-1.5l1.73-8.86ZM200.21,140.51h1.57l-.35,1.78h-1.57l.35-1.78ZM201.35,153.41h1.44c.11.79.77,1.35,2.13,1.35s2.29-.78,2.54-2.08l.1-.61s.15-.64.25-1.04h-.02c-.68.79-1.5,1.35-2.65,1.35-2.01,0-3.2-1.58-3.2-3.58,0-2.97,1.95-5.1,4.29-5.1,1.34,0,2.23.63,2.69,1.65l.28-1.45h1.47l-1.73,8.83c-.46,2.31-1.96,3.17-4.04,3.17-2.21,0-3.45-1.06-3.53-2.49ZM208.55,147.22c0-1.39-.76-2.28-2.28-2.28-1.83,0-2.84,1.96-2.84,3.94,0,1.39.66,2.31,2.08,2.31,2.11,0,3.04-2.24,3.04-3.98ZM212.84,143.92h1.49l-.28,1.32h.03c.66-.94,1.7-1.54,2.89-1.54,1.73,0,2.92,1.17,2.52,3.14l-1.19,5.94h-1.5l1.17-5.91c.25-1.21-.26-1.91-1.55-1.91s-2.44.84-2.72,2.24l-1.09,5.58h-1.5l1.73-8.86ZM154.92,74.24c-7-1.03-13.03-4.53-17.35-9.5-2.48-2.84-4.39-6.17-5.58-9.8-.72.18-1.48.28-2.25.28-.19,0-.38,0-.56-.02.99,3.22,2.5,6.24,4.42,8.95,4.76,6.7,12.16,11.51,20.91,12.81,4.72.69,9.33.29,13.61-1.03-.5-.78-.9-1.62-1.17-2.52-3.8,1.11-7.87,1.43-12.03.83ZM173.05,28.14c.14,0,.28,0,.4.03.5.07.99.11,1.49.11,4.96,0,9.25-3.71,9.97-8.63.39-2.66-.28-5.32-1.89-7.49-1.61-2.17-3.96-3.57-6.63-3.96-.49-.07-.99-.1-1.48-.1-4.96,0-9.25,3.71-9.97,8.62-.39,2.66.28,5.32,1.89,7.49.09.14.2.27.3.39.76.94.83,2.27.16,3.27-.51.78-1.39,1.23-2.28,1.23-.27,0-.53-.04-.79-.12-.83-.25-1.7-.44-2.57-.57-.86-.12-1.74-.18-2.61-.18-8.37,0-15.7,5.95-17.43,14.17-.24,1.17-1.2,2.04-2.38,2.17-.11,0-.21,0-.31,0-1.06,0-2.05-.61-2.5-1.6-.22-.46-.48-.9-.79-1.31-1.17-1.57-2.88-2.6-4.82-2.88-.36-.05-.72-.07-1.08-.07-3.61,0-6.72,2.7-7.25,6.28-.28,1.94.2,3.87,1.38,5.44,1.17,1.58,2.88,2.6,4.82,2.88.18.03.36.05.53.06.18,0,.37.02.54.02,2.84,0,5.46-1.68,6.66-4.28.46-.98,1.44-1.6,2.5-1.6.11,0,.21,0,.31.02,1.18.13,2.14,1.01,2.39,2.17,1.53,7.29,7.5,12.91,14.86,13.99.86.13,1.74.19,2.61.19,2.38,0,4.69-.48,6.89-1.41.35-.15.72-.22,1.08-.22.77,0,1.52.32,2.06.93.79.89.92,2.18.32,3.2-.52.9-.86,1.88-1.01,2.9-.17,1.17-.08,2.32.21,3.39.85,3.06,3.43,5.49,6.75,5.97.4.06.82.09,1.22.09,4.06,0,7.56-3.04,8.16-7.06.66-4.5-2.47-8.71-6.97-9.38-.4-.06-.81-.08-1.21-.08-.53,0-1.07.06-1.6.16-.18.04-.37.06-.55.06-.96,0-1.88-.51-2.39-1.38-.59-1.03-.45-2.32.33-3.2,2.32-2.61,3.82-5.8,4.31-9.21.7-4.71-.49-9.4-3.33-13.23-.68-.91-1.43-1.75-2.25-2.5-.89-.82-1.1-2.11-.58-3.2.46-.96,1.46-1.56,2.51-1.56ZM129.75,50.76c-2.61,0-4.72-2.11-4.72-4.72s2.11-4.72,4.72-4.72,4.72,2.11,4.72,4.72-2.11,4.72-4.72,4.72ZM176.61,65.3c2.85,0,5.15,2.31,5.15,5.15s-2.31,5.15-5.15,5.15-5.15-2.31-5.15-5.15,2.31-5.15,5.15-5.15ZM174.53,48.32c-1.26,8.54-9.2,14.45-17.73,13.19-8.54-1.26-14.45-9.19-13.19-17.73,1.25-8.54,9.19-14.44,17.73-13.19,8.53,1.26,14.44,9.2,13.19,17.73ZM167.95,18.13c0-3.86,3.13-6.99,6.99-6.99s6.99,3.12,6.99,6.99-3.12,6.99-6.99,6.99-6.99-3.13-6.99-6.99ZM162.14,45.62c0,.58.04,2.56.04,2.56h-.04s-.88-1.63-1.14-2.09l-4.89-8.28h-4.1v16.5h3.99v-7.69c0-.57-.05-2.7-.05-2.7h.05s.9,1.78,1.17,2.22l4.84,8.17h4.11v-16.5h-3.99v7.82Z"/><rect class="cls-1" width="310" height="164"/></svg>