<?xml version="1.0" encoding="UTF-8"?><svg id="Layer_1" xmlns="http://www.w3.org/2000/svg" width="194" height="58" viewBox="0 0 194 58"><defs><style>.cls-1{fill:none;}.cls-1,.cls-2{stroke-width:0px;}.cls-2{fill:#231f20;}</style></defs><path class="cls-2" d="M52.27,21.26h4.36l5.19,8.79c.27.49,1.2,2.23,1.2,2.23h.05s-.05-2.1-.05-2.72v-8.3h4.23v17.5h-4.36l-5.14-8.66c-.29-.46-1.25-2.35-1.25-2.35h-.05s.05,2.25.05,2.86v8.15h-4.23v-17.5ZM68.84,32.47c0-3.75,2.62-6.61,6.44-6.61,1.79,0,3.21.59,4.28,1.57,1.49,1.37,2.23,3.55,2.2,6.09h-9.01c.25,1.69,1.17,2.74,2.81,2.74,1.05,0,1.74-.47,2.08-1.25h3.89c-.27,1.13-1,2.2-2.1,2.96-1.05.73-2.33,1.15-3.92,1.15-4.14,0-6.68-2.86-6.68-6.66ZM77.72,31.15c-.15-1.49-1.08-2.45-2.37-2.45-1.52,0-2.3.96-2.57,2.45h4.94ZM83.84,35.46v-6.73h-1.66v-2.5h1.66v-3.96h3.89v3.96h2.28v2.5h-2.28v5.87c0,.98.54,1.22,1.39,1.22.34,0,.73-.02.88-.02v2.91c-.34.1-1.1.2-2.18.2-2.33,0-3.99-.76-3.99-3.45ZM91.69,21.26h13.02v3.65h-8.69v3.55h7.27v3.5h-7.27v6.8h-4.33v-17.5ZM104.52,32.52c0-3.77,2.69-6.63,6.71-6.63s6.68,2.86,6.68,6.63-2.64,6.63-6.68,6.63-6.71-2.86-6.71-6.63ZM113.87,32.52c0-2.28-.93-3.82-2.67-3.82s-2.64,1.54-2.64,3.82.91,3.79,2.64,3.79,2.67-1.52,2.67-3.79ZM119.15,34.46v-8.22h3.96v7.39c0,1.37.61,2.13,1.88,2.13,1.37,0,2.2-1.03,2.2-2.52v-7h3.99v12.53h-3.82v-1.54h-.07c-.91,1.22-2.01,1.91-3.75,1.91-2.89,0-4.41-1.88-4.41-4.67ZM133.1,26.23h3.84v1.71h.07c.93-1.35,2.13-2.08,3.87-2.08,2.74,0,4.36,1.96,4.36,4.75v8.15h-3.99v-7.34c0-1.32-.66-2.23-1.96-2.23s-2.2,1.1-2.2,2.64v6.93h-3.99v-12.53ZM146.49,32.5c0-3.92,2.25-6.63,5.48-6.63,1.76,0,2.77.73,3.5,1.79h.07v-6.39h3.99v17.5h-3.82v-1.69h-.05c-.76,1.3-2.06,2.08-3.7,2.08-3.21,0-5.48-2.47-5.48-6.66ZM155.64,32.5c0-2.1-.86-3.62-2.59-3.62-1.59,0-2.52,1.47-2.52,3.57s.93,3.55,2.47,3.55c1.66,0,2.64-1.44,2.64-3.5ZM161.44,26.23h3.82v1.96h.07c.88-1.49,1.91-2.15,3.43-2.15.37,0,.61.02.78.1v3.43h-.1c-2.45-.34-4.01.86-4.01,3.57v5.63h-3.99v-12.53ZM171.47,39.79h1.37c1.17,0,1.64-.47,1.64-1.32,0-.54-.24-1.27-.76-2.59l-3.7-9.64h4.21l1.69,5.34c.39,1.22.78,2.89.78,2.89h.05s.34-1.66.73-2.89l1.64-5.34h3.99l-4.33,12.7c-1,2.94-2.2,3.97-4.72,3.97h-2.59v-3.11ZM29.87,47.01c-4.09-.6-7.61-2.65-10.13-5.55-1.45-1.66-2.56-3.61-3.26-5.72-.42.11-.86.17-1.31.17-.11,0-.22,0-.33-.01.58,1.88,1.46,3.64,2.58,5.23,2.78,3.91,7.1,6.73,12.21,7.48,2.75.4,5.45.17,7.95-.6-.29-.46-.53-.95-.69-1.47-2.22.65-4.6.84-7.03.48ZM40.46,20.08c.08,0,.16,0,.24.02.29.04.58.06.87.06,2.9,0,5.4-2.17,5.83-5.04.23-1.55-.17-3.11-1.1-4.37-.94-1.26-2.32-2.08-3.87-2.32-.28-.04-.58-.06-.86-.06-2.9,0-5.4,2.17-5.83,5.04-.23,1.55.16,3.11,1.1,4.37.05.08.12.16.18.23.44.55.49,1.32.09,1.91-.3.46-.81.72-1.33.72-.16,0-.31-.02-.46-.07-.49-.14-.99-.26-1.5-.33-.5-.07-1.02-.11-1.52-.11-4.89,0-9.17,3.48-10.18,8.28-.14.68-.7,1.19-1.39,1.27-.06,0-.12,0-.18,0-.62,0-1.2-.36-1.46-.93-.13-.27-.28-.53-.46-.77-.68-.92-1.68-1.52-2.81-1.68-.21-.03-.42-.04-.63-.04-2.11,0-3.93,1.58-4.23,3.67-.17,1.13.12,2.26.8,3.18.68.92,1.68,1.52,2.81,1.68.11.02.21.03.31.04.11,0,.21.01.32.01,1.66,0,3.19-.98,3.89-2.5.27-.57.84-.93,1.46-.93.06,0,.12,0,.18.01.69.07,1.25.59,1.39,1.26.9,4.26,4.38,7.54,8.68,8.17.5.08,1.02.11,1.53.11,1.39,0,2.74-.28,4.03-.83.2-.09.42-.13.63-.13.45,0,.89.19,1.2.54.46.52.54,1.28.19,1.87-.31.53-.5,1.1-.59,1.69-.1.69-.05,1.36.12,1.98.5,1.78,2,3.2,3.94,3.49.24.04.48.05.71.05,2.37,0,4.42-1.77,4.76-4.12.39-2.63-1.44-5.09-4.07-5.48-.24-.03-.47-.05-.71-.05-.31,0-.63.03-.93.09-.11.02-.21.03-.32.03-.56,0-1.1-.3-1.39-.8-.34-.6-.26-1.36.19-1.87,1.36-1.53,2.23-3.39,2.52-5.38.41-2.75-.28-5.49-1.95-7.73-.4-.53-.84-1.02-1.31-1.46-.52-.48-.64-1.23-.34-1.87.27-.56.85-.91,1.47-.91ZM15.16,33.29c-1.52,0-2.76-1.23-2.76-2.76s1.23-2.76,2.76-2.76,2.76,1.23,2.76,2.76-1.23,2.76-2.76,2.76ZM42.54,41.79c1.66,0,3.01,1.35,3.01,3.01s-1.35,3.01-3.01,3.01-3.01-1.35-3.01-3.01,1.35-3.01,3.01-3.01ZM41.32,31.86c-.73,4.99-5.38,8.44-10.36,7.71-4.99-.73-8.44-5.37-7.71-10.36.73-4.99,5.37-8.44,10.36-7.71,4.98.73,8.44,5.38,7.71,10.36ZM37.48,14.23c0-2.26,1.83-4.08,4.08-4.08s4.08,1.82,4.08,4.08-1.82,4.08-4.08,4.08-4.08-1.83-4.08-4.08ZM34.08,30.29c0,.34.02,1.5.02,1.5h-.02s-.51-.95-.66-1.22l-2.86-4.84h-2.4v9.64h2.33v-4.49c0-.33-.03-1.58-.03-1.58h.03s.53,1.04.69,1.3l2.83,4.77h2.4v-9.64h-2.33v4.57Z"/><rect class="cls-1" width="194" height="58"/></svg>