<?xml version="1.0" encoding="UTF-8"?><svg id="Layer_1" xmlns="http://www.w3.org/2000/svg" width="194" height="58" xmlns:xlink="http://www.w3.org/1999/xlink" viewBox="0 0 194 58"><defs><style>.cls-1{fill:none;}.cls-1,.cls-2,.cls-3,.cls-4,.cls-5{stroke-width:0px;}.cls-2{fill:url(#linear-gradient);}.cls-3{fill:#022b6b;}.cls-4{fill:#fff;}.cls-5{fill:#67ce4d;}</style><linearGradient id="linear-gradient" x1="69.71" y1="739.96" x2="30.42" y2="723.02" gradientTransform="translate(93.51 -704.36) rotate(8.36)" gradientUnits="userSpaceOnUse"><stop offset=".26" stop-color="#035ce6"/><stop offset=".32" stop-color="#1478c0"/><stop offset=".4" stop-color="#2ba08d"/><stop offset=".48" stop-color="#3dbf64"/><stop offset=".55" stop-color="#4bd547"/><stop offset=".61" stop-color="#53e336"/><stop offset=".66" stop-color="#56e830"/><stop offset=".68" stop-color="#5ce058"/><stop offset=".71" stop-color="#63d884"/><stop offset=".73" stop-color="#6ad1aa"/><stop offset=".76" stop-color="#6fcbc9"/><stop offset=".79" stop-color="#73c7e0"/><stop offset=".82" stop-color="#75c4f1"/><stop offset=".85" stop-color="#77c2fb"/><stop offset=".89" stop-color="#78c2ff"/></linearGradient></defs><path class="cls-4" d="M52.27,21.26h4.36l5.19,8.79c.27.49,1.2,2.23,1.2,2.23h.05s-.05-2.1-.05-2.72v-8.3h4.23v17.5h-4.36l-5.14-8.66c-.29-.46-1.25-2.35-1.25-2.35h-.05s.05,2.25.05,2.86v8.15h-4.23v-17.5Z"/><path class="cls-4" d="M68.84,32.47c0-3.75,2.62-6.61,6.44-6.61,1.79,0,3.21.59,4.28,1.57,1.49,1.37,2.23,3.55,2.2,6.09h-9.01c.25,1.69,1.17,2.74,2.81,2.74,1.05,0,1.74-.47,2.08-1.25h3.89c-.27,1.13-1,2.2-2.1,2.96-1.05.73-2.33,1.15-3.92,1.15-4.14,0-6.68-2.86-6.68-6.66ZM77.72,31.15c-.15-1.49-1.08-2.45-2.37-2.45-1.52,0-2.3.96-2.57,2.45h4.94Z"/><path class="cls-4" d="M83.84,35.46v-6.73h-1.66v-2.5h1.66v-3.96h3.89v3.96h2.28v2.5h-2.28v5.87c0,.98.54,1.22,1.39,1.22.34,0,.73-.02.88-.02v2.91c-.34.1-1.1.2-2.18.2-2.33,0-3.99-.76-3.99-3.45Z"/><path class="cls-4" d="M91.69,21.26h13.02v3.65h-8.69v3.55h7.27v3.5h-7.27v6.8h-4.33v-17.5Z"/><path class="cls-4" d="M104.52,32.52c0-3.77,2.69-6.63,6.71-6.63s6.68,2.86,6.68,6.63-2.64,6.63-6.68,6.63-6.71-2.86-6.71-6.63ZM113.87,32.52c0-2.28-.93-3.82-2.67-3.82s-2.64,1.54-2.64,3.82.91,3.79,2.64,3.79,2.67-1.52,2.67-3.79Z"/><path class="cls-4" d="M119.15,34.46v-8.22h3.96v7.39c0,1.37.61,2.13,1.88,2.13,1.37,0,2.2-1.03,2.2-2.52v-7h3.99v12.53h-3.82v-1.54h-.07c-.91,1.22-2.01,1.91-3.75,1.91-2.89,0-4.41-1.88-4.41-4.67Z"/><path class="cls-4" d="M133.1,26.23h3.84v1.71h.07c.93-1.35,2.13-2.08,3.87-2.08,2.74,0,4.36,1.96,4.36,4.75v8.15h-3.99v-7.34c0-1.32-.66-2.23-1.96-2.23s-2.2,1.1-2.2,2.64v6.93h-3.99v-12.53Z"/><path class="cls-4" d="M146.49,32.5c0-3.92,2.25-6.63,5.48-6.63,1.76,0,2.77.73,3.5,1.79h.07v-6.39h3.99v17.5h-3.82v-1.69h-.05c-.76,1.3-2.06,2.08-3.7,2.08-3.21,0-5.48-2.47-5.48-6.66ZM155.64,32.5c0-2.1-.86-3.62-2.59-3.62-1.59,0-2.52,1.47-2.52,3.57s.93,3.55,2.47,3.55c1.66,0,2.64-1.44,2.64-3.5Z"/><path class="cls-4" d="M161.44,26.23h3.82v1.96h.07c.88-1.49,1.91-2.15,3.43-2.15.37,0,.61.02.78.1v3.43h-.1c-2.45-.34-4.01.86-4.01,3.57v5.63h-3.99v-12.53Z"/><path class="cls-4" d="M171.47,39.79h1.37c1.17,0,1.64-.47,1.64-1.32,0-.54-.24-1.27-.76-2.59l-3.7-9.64h4.21l1.69,5.34c.39,1.22.78,2.89.78,2.89h.05s.34-1.66.73-2.89l1.64-5.34h3.99l-4.33,12.7c-1,2.94-2.2,3.97-4.72,3.97h-2.59v-3.11Z"/><path class="cls-5" d="M37.58,48.01c-2.5.77-5.19,1-7.95.6-5.11-.76-9.43-3.57-12.21-7.48-1.13-1.59-2-3.35-2.58-5.23.11,0,.21.01.33.01.45,0,.9-.06,1.31-.17.7,2.12,1.81,4.06,3.26,5.72,2.52,2.9,6.05,4.95,10.14,5.55,2.43.35,4.81.17,7.03-.48.16.53.39,1.02.69,1.47Z"/><path class="cls-2" d="M42.54,49.63c-.23,0-.47-.02-.71-.05-2.63-.39-4.46-2.84-4.07-5.47.09-.6.29-1.17.59-1.69.35-.6.27-1.35-.19-1.87-.31-.35-.75-.54-1.2-.54-.21,0-.43.04-.63.13-1.28.55-2.64.83-4.03.83-.51,0-1.02-.04-1.53-.11-4.3-.63-7.79-3.92-8.68-8.17-.14-.68-.7-1.19-1.39-1.27-.06,0-.12-.01-.18-.01-.62,0-1.19.36-1.46.93-.71,1.52-2.23,2.5-3.89,2.5-.21,0-.42-.02-.63-.05-1.13-.17-2.13-.76-2.82-1.68-.68-.92-.97-2.05-.8-3.18.31-2.09,2.13-3.66,4.24-3.66.21,0,.42.02.63.05,1.13.17,2.13.76,2.82,1.68.18.24.33.5.46.77.27.57.84.93,1.46.93.06,0,.12,0,.18-.01.69-.08,1.25-.59,1.39-1.27,1.01-4.8,5.29-8.28,10.18-8.28.51,0,1.02.04,1.53.11.51.07,1.01.19,1.5.33.15.05.31.07.46.07.53,0,1.03-.26,1.34-.72.39-.59.35-1.36-.09-1.91-.06-.07-.12-.15-.18-.23-.94-1.26-1.33-2.82-1.1-4.38.42-2.87,2.93-5.04,5.83-5.04.29,0,.58.02.86.06,1.56.23,2.93,1.05,3.87,2.31.94,1.26,1.33,2.82,1.1,4.38-.42,2.87-2.93,5.04-5.83,5.04-.29,0-.58-.02-.86-.06-.08-.01-.16-.02-.24-.02-.62,0-1.2.35-1.47.91-.3.64-.18,1.39.34,1.87.48.44.92.93,1.32,1.46,1.66,2.23,2.35,4.98,1.95,7.73-.29,1.99-1.16,3.86-2.52,5.38-.46.52-.54,1.27-.19,1.87.29.51.83.81,1.39.81.11,0,.21-.01.32-.03.31-.06.62-.09.93-.09.23,0,.47.02.71.05,2.63.39,4.46,2.84,4.07,5.47-.35,2.35-2.39,4.12-4.77,4.12Z"/><circle class="cls-3" cx="32.29" cy="30.54" r="9.13"/><path class="cls-4" d="M28.16,25.72h2.4l2.86,4.84c.15.27.66,1.23.66,1.23h.03s-.03-1.16-.03-1.5v-4.57h2.33v9.64h-2.4l-2.83-4.77c-.16-.26-.69-1.29-.69-1.29h-.03s.03,1.24.03,1.58v4.49h-2.33v-9.64Z"/><rect class="cls-1" width="194" height="58"/></svg>