<?xml version="1.0" encoding="UTF-8"?><svg id="Layer_1" xmlns="http://www.w3.org/2000/svg" width="194" height="64" xmlns:xlink="http://www.w3.org/1999/xlink" viewBox="0 0 194 64"><defs><style>.cls-1{fill:none;}.cls-1,.cls-2,.cls-3,.cls-4,.cls-5{stroke-width:0px;}.cls-2{fill:url(#linear-gradient);}.cls-3{fill:#022b6b;}.cls-4{fill:#fff;}.cls-5{fill:#67ce4d;}</style><linearGradient id="linear-gradient" x1="72.42" y1="774.02" x2="33.13" y2="757.08" gradientTransform="translate(95.78 -735.46) rotate(8.36)" gradientUnits="userSpaceOnUse"><stop offset=".26" stop-color="#035ce6"/><stop offset=".32" stop-color="#1478c0"/><stop offset=".4" stop-color="#2ba08d"/><stop offset=".48" stop-color="#3dbf64"/><stop offset=".55" stop-color="#4bd547"/><stop offset=".61" stop-color="#53e336"/><stop offset=".66" stop-color="#56e830"/><stop offset=".68" stop-color="#5ce058"/><stop offset=".71" stop-color="#63d884"/><stop offset=".73" stop-color="#6ad1aa"/><stop offset=".76" stop-color="#6fcbc9"/><stop offset=".79" stop-color="#73c7e0"/><stop offset=".82" stop-color="#75c4f1"/><stop offset=".85" stop-color="#77c2fb"/><stop offset=".89" stop-color="#78c2ff"/></linearGradient></defs><path class="cls-4" d="M52.27,18.07h4.36l5.19,8.79c.27.49,1.2,2.23,1.2,2.23h.05s-.05-2.1-.05-2.72v-8.3h4.23v17.5h-4.36l-5.14-8.66c-.29-.46-1.25-2.35-1.25-2.35h-.05s.05,2.25.05,2.86v8.15h-4.23v-17.5Z"/><path class="cls-4" d="M68.84,29.28c0-3.75,2.62-6.61,6.44-6.61,1.79,0,3.21.59,4.28,1.57,1.49,1.37,2.23,3.55,2.2,6.09h-9.01c.25,1.69,1.17,2.74,2.81,2.74,1.05,0,1.74-.47,2.08-1.25h3.89c-.27,1.13-1,2.2-2.1,2.96-1.05.73-2.33,1.15-3.92,1.15-4.14,0-6.68-2.86-6.68-6.66ZM77.72,27.96c-.15-1.49-1.08-2.45-2.37-2.45-1.52,0-2.3.96-2.57,2.45h4.94Z"/><path class="cls-4" d="M83.84,32.27v-6.73h-1.66v-2.5h1.66v-3.96h3.89v3.96h2.28v2.5h-2.28v5.87c0,.98.54,1.22,1.39,1.22.34,0,.73-.02.88-.02v2.91c-.34.1-1.1.2-2.18.2-2.33,0-3.99-.76-3.99-3.45Z"/><path class="cls-4" d="M91.69,18.07h13.02v3.65h-8.69v3.55h7.27v3.5h-7.27v6.8h-4.33v-17.5Z"/><path class="cls-4" d="M104.52,29.33c0-3.77,2.69-6.63,6.71-6.63s6.68,2.86,6.68,6.63-2.64,6.63-6.68,6.63-6.71-2.86-6.71-6.63ZM113.87,29.33c0-2.28-.93-3.82-2.67-3.82s-2.64,1.54-2.64,3.82.91,3.79,2.64,3.79,2.67-1.52,2.67-3.79Z"/><path class="cls-4" d="M119.15,31.26v-8.22h3.96v7.39c0,1.37.61,2.13,1.88,2.13,1.37,0,2.2-1.03,2.2-2.52v-7h3.99v12.53h-3.82v-1.54h-.07c-.91,1.22-2.01,1.91-3.75,1.91-2.89,0-4.41-1.88-4.41-4.67Z"/><path class="cls-4" d="M133.1,23.04h3.84v1.71h.07c.93-1.35,2.13-2.08,3.87-2.08,2.74,0,4.36,1.96,4.36,4.75v8.15h-3.99v-7.34c0-1.32-.66-2.23-1.96-2.23s-2.2,1.1-2.2,2.64v6.93h-3.99v-12.53Z"/><path class="cls-4" d="M146.49,29.31c0-3.92,2.25-6.63,5.48-6.63,1.76,0,2.77.73,3.5,1.79h.07v-6.39h3.99v17.5h-3.82v-1.69h-.05c-.76,1.3-2.06,2.08-3.7,2.08-3.21,0-5.48-2.47-5.48-6.66ZM155.64,29.31c0-2.1-.86-3.62-2.59-3.62-1.59,0-2.52,1.47-2.52,3.57s.93,3.55,2.47,3.55c1.66,0,2.64-1.44,2.64-3.5Z"/><path class="cls-4" d="M161.44,23.04h3.82v1.96h.07c.88-1.49,1.91-2.15,3.43-2.15.37,0,.61.02.78.1v3.43h-.1c-2.45-.34-4.01.86-4.01,3.57v5.63h-3.99v-12.53Z"/><path class="cls-4" d="M171.47,36.6h1.37c1.17,0,1.64-.47,1.64-1.32,0-.54-.24-1.27-.76-2.59l-3.7-9.64h4.21l1.69,5.34c.39,1.22.78,2.89.78,2.89h.05s.34-1.66.73-2.89l1.64-5.34h3.99l-4.33,12.7c-1,2.94-2.2,3.97-4.72,3.97h-2.59v-3.11Z"/><path class="cls-4" d="M51.29,48.06h.7c.05.77.52,1.23,1.46,1.23.71,0,1.15-.37,1.15-.95,0-.52-.38-.72-1.28-1.05-.78-.29-1.37-.61-1.37-1.42s.64-1.38,1.7-1.38c1.25,0,1.81.7,1.86,1.52h-.66c-.05-.57-.46-.99-1.21-.99-.63,0-1,.31-1,.81,0,.44.32.63,1.1.92.9.34,1.58.63,1.58,1.57,0,.87-.74,1.51-1.88,1.51-1.45,0-2.13-.81-2.15-1.77Z"/><path class="cls-4" d="M55.9,48.22c0-1.22.8-2.29,2.03-2.29.98,0,1.44.64,1.44,1.52,0,.18-.02.37-.05.57h-2.79c0,.07,0,.14,0,.21,0,.7.34,1.09,1,1.09.46,0,.85-.21,1.02-.66h.63c-.27.77-.92,1.17-1.68,1.17-1.06,0-1.59-.7-1.59-1.61ZM56.61,47.57h2.11c.11-.67-.15-1.16-.84-1.16s-1.1.54-1.27,1.16Z"/><path class="cls-4" d="M59.8,48.28c0-1.28.8-2.35,2.03-2.35.95,0,1.39.59,1.41,1.3h-.61c0-.46-.28-.79-.85-.79-.88,0-1.34.95-1.34,1.86,0,.63.3,1.01.91,1.01.54,0,.94-.32,1.12-.9h.62c-.24.92-.9,1.41-1.75,1.41-.98,0-1.54-.63-1.54-1.54Z"/><path class="cls-4" d="M63.73,48.51l.49-2.5h.62l-.49,2.49c-.08.41.02.79.61.79s1.01-.41,1.12-.95l.46-2.32h.63l-.73,3.71h-.61l.1-.53h-.01c-.28.38-.67.62-1.16.62-.77,0-1.18-.51-1.03-1.3Z"/><path class="cls-4" d="M68.07,46.02h.61l-.13.66h.02c.25-.43.63-.7,1.1-.7.12,0,.2.01.23.03l-.08.61h-.03c-.06-.02-.13-.04-.25-.04-.55,0-1.03.36-1.17,1.09l-.41,2.06h-.63l.72-3.7Z"/><path class="cls-4" d="M69.91,48.22c0-1.22.8-2.29,2.03-2.29.98,0,1.44.64,1.44,1.52,0,.18-.02.37-.05.57h-2.79c0,.07,0,.14,0,.21,0,.7.34,1.09,1,1.09.46,0,.85-.21,1.02-.66h.63c-.27.77-.92,1.17-1.68,1.17-1.06,0-1.59-.7-1.59-1.61ZM70.62,47.57h2.11c.11-.67-.15-1.16-.84-1.16s-1.1.54-1.27,1.16Z"/><path class="cls-4" d="M76.52,44.59h.63l-.26,1.35c-.03.18-.08.4-.12.57h.01c.31-.37.7-.58,1.17-.58.84,0,1.32.61,1.32,1.53,0,1.25-.68,2.37-1.82,2.37-.6,0-.99-.27-1.17-.71h-.03l-.11.61h-.61l1-5.13ZM78.62,47.47c0-.62-.3-1.01-.85-1.01-.87,0-1.34.87-1.34,1.72,0,.65.3,1.15.93,1.15.81,0,1.25-1,1.25-1.85Z"/><path class="cls-4" d="M79.1,50.92l.11-.52h.03c.07.04.2.08.37.08.24,0,.42-.12.61-.46,0-.01.23-.43.23-.48l-.69-3.52h.65l.36,2.02c.08.41.12,1.03.12,1.03h.02s.23-.55.46-.98l1.14-2.08h.69l-2.34,4.05c-.45.78-.77.95-1.23.95-.21,0-.41-.04-.53-.1Z"/><path class="cls-4" d="M85.86,44.59h1.7c1.3,0,1.98.88,1.98,2.05,0,1.89-1,3.08-2.81,3.08h-1.87l1-5.13ZM86.78,49.12c1.46,0,2.06-1.08,2.06-2.48,0-.86-.42-1.47-1.38-1.47h-1.01l-.78,3.95h1.11Z"/><path class="cls-4" d="M89.91,48.22c0-1.22.8-2.29,2.03-2.29.98,0,1.44.64,1.44,1.52,0,.18-.02.37-.05.57h-2.79c0,.07,0,.14,0,.21,0,.7.34,1.09,1,1.09.46,0,.85-.21,1.02-.66h.63c-.27.77-.92,1.17-1.68,1.17-1.06,0-1.59-.7-1.59-1.61ZM90.62,47.57h2.11c.11-.67-.15-1.16-.84-1.16s-1.1.54-1.27,1.16Z"/><path class="cls-4" d="M93.68,48.59h.64c.05.54.43.73.99.73.59,0,.82-.29.82-.63,0-.3-.25-.46-.83-.64-.69-.21-1.16-.42-1.17-1.06-.01-.61.51-1.07,1.37-1.07.95,0,1.42.45,1.44,1.08h-.63c0-.4-.28-.6-.81-.6s-.72.21-.72.52.29.43.87.61c.61.19,1.13.45,1.15,1.12,0,.7-.59,1.16-1.48,1.16-1.08,0-1.57-.5-1.61-1.23Z"/><path class="cls-4" d="M98.05,46.02h.63l-.72,3.7h-.63l.72-3.7ZM98.31,44.59h.66l-.14.74h-.66l.14-.74Z"/><path class="cls-4" d="M98.79,49.99h.6c.05.33.32.57.89.57s.96-.32,1.06-.87l.04-.26s.06-.27.1-.43h0c-.28.33-.63.57-1.11.57-.84,0-1.34-.66-1.34-1.5,0-1.24.81-2.13,1.79-2.13.56,0,.93.26,1.12.69l.12-.61h.61l-.72,3.69c-.19.97-.82,1.32-1.69,1.32-.92,0-1.44-.44-1.48-1.04ZM101.8,47.4c0-.58-.32-.95-.95-.95-.77,0-1.19.82-1.19,1.65,0,.58.28.97.87.97.88,0,1.27-.94,1.27-1.66Z"/><path class="cls-4" d="M103.59,46.02h.62l-.12.55h.01c.28-.39.71-.64,1.21-.64.72,0,1.22.49,1.06,1.31l-.5,2.48h-.63l.49-2.47c.1-.5-.11-.8-.65-.8s-1.02.35-1.14.94l-.46,2.33h-.63l.72-3.7Z"/><path class="cls-5" d="M37.58,51.01c-2.5.77-5.19,1-7.95.6-5.11-.76-9.43-3.57-12.21-7.48-1.13-1.59-2-3.35-2.58-5.23.11,0,.21.01.33.01.45,0,.9-.06,1.31-.17.7,2.12,1.81,4.06,3.26,5.72,2.52,2.9,6.05,4.95,10.14,5.55,2.43.35,4.81.17,7.03-.48.16.53.39,1.02.69,1.47Z"/><path class="cls-2" d="M42.54,52.63c-.23,0-.47-.02-.71-.05-2.63-.39-4.46-2.84-4.07-5.47.09-.6.29-1.17.59-1.69.35-.6.27-1.35-.19-1.87-.31-.35-.75-.54-1.2-.54-.21,0-.43.04-.63.13-1.28.55-2.64.83-4.03.83-.51,0-1.02-.04-1.53-.11-4.3-.63-7.79-3.92-8.68-8.17-.14-.68-.7-1.19-1.39-1.27-.06,0-.12-.01-.18-.01-.62,0-1.19.36-1.46.93-.71,1.52-2.23,2.5-3.89,2.5-.21,0-.42-.02-.63-.05-1.13-.17-2.13-.76-2.82-1.68-.68-.92-.97-2.05-.8-3.18.31-2.09,2.13-3.66,4.24-3.66.21,0,.42.02.63.05,1.13.17,2.13.76,2.82,1.68.18.24.33.5.46.77.27.57.84.93,1.46.93.06,0,.12,0,.18-.01.69-.08,1.25-.59,1.39-1.27,1.01-4.8,5.29-8.28,10.18-8.28.51,0,1.02.04,1.53.11.51.07,1.01.19,1.5.33.15.05.31.07.46.07.53,0,1.03-.26,1.34-.72.39-.59.35-1.36-.09-1.91-.06-.07-.12-.15-.18-.23-.94-1.26-1.33-2.82-1.1-4.38.42-2.87,2.93-5.04,5.83-5.04.29,0,.58.02.86.06,1.56.23,2.93,1.05,3.87,2.31.94,1.26,1.33,2.82,1.1,4.38-.42,2.87-2.93,5.04-5.83,5.04-.29,0-.58-.02-.86-.06-.08-.01-.16-.02-.24-.02-.62,0-1.2.35-1.47.91-.3.64-.18,1.39.34,1.87.48.44.92.93,1.32,1.46,1.66,2.23,2.35,4.98,1.95,7.73-.29,1.99-1.16,3.86-2.52,5.38-.46.52-.54,1.27-.19,1.87.29.51.83.81,1.39.81.11,0,.21-.01.32-.03.31-.06.62-.09.93-.09.23,0,.47.02.71.05,2.63.39,4.46,2.84,4.07,5.47-.35,2.35-2.39,4.12-4.77,4.12Z"/><circle class="cls-3" cx="32.29" cy="33.54" r="9.13"/><path class="cls-4" d="M28.16,28.72h2.4l2.86,4.84c.15.27.66,1.23.66,1.23h.03s-.03-1.16-.03-1.5v-4.57h2.33v9.64h-2.4l-2.83-4.77c-.16-.26-.69-1.29-.69-1.29h-.03s.03,1.24.03,1.58v4.49h-2.33v-9.64Z"/><rect class="cls-1" width="194" height="64"/></svg>