<?xml version="1.0" encoding="UTF-8"?><svg id="Layer_1" xmlns="http://www.w3.org/2000/svg" width="194" height="64" viewBox="0 0 194 64"><defs><style>.cls-1{fill:none;}.cls-1,.cls-2{stroke-width:0px;}.cls-2{fill:#fff;}</style></defs><path class="cls-2" d="M36.9,49.53c.16.53.39,1.02.69,1.47-2.5.77-5.19,1-7.95.6-5.11-.76-9.43-3.57-12.21-7.48-1.13-1.59-2-3.35-2.58-5.23.11,0,.21.01.33.01.45,0,.9-.06,1.31-.17.7,2.12,1.81,4.06,3.26,5.72,2.52,2.9,6.05,4.95,10.13,5.55,2.43.35,4.81.17,7.03-.48ZM38.99,23.99c-.31.64-.18,1.39.34,1.87.48.44.92.93,1.31,1.46,1.66,2.23,2.35,4.98,1.95,7.73-.29,1.99-1.16,3.85-2.52,5.38-.46.51-.54,1.27-.19,1.87.29.5.83.8,1.39.8.11,0,.21-.01.32-.03.31-.06.62-.09.93-.09.24,0,.47.02.71.05,2.63.39,4.46,2.85,4.07,5.48-.35,2.35-2.4,4.12-4.76,4.12-.24,0-.48-.02-.71-.05-1.94-.28-3.45-1.7-3.94-3.49-.17-.63-.23-1.3-.12-1.98.09-.59.28-1.17.59-1.69.35-.59.27-1.35-.19-1.87-.31-.35-.75-.54-1.2-.54-.21,0-.43.04-.63.13-1.29.55-2.64.83-4.03.83-.51,0-1.02-.04-1.53-.11-4.3-.63-7.79-3.91-8.68-8.17-.14-.68-.7-1.19-1.39-1.26-.06-.01-.12-.01-.18-.01-.62,0-1.19.36-1.46.93-.7,1.52-2.23,2.5-3.89,2.5-.1,0-.21,0-.32-.01-.1-.01-.2-.02-.31-.04-1.13-.17-2.13-.76-2.81-1.68-.69-.92-.97-2.05-.8-3.18.31-2.09,2.13-3.67,4.23-3.67.21,0,.42.02.63.04,1.13.17,2.13.77,2.81,1.68.18.24.33.5.46.77.26.57.84.93,1.46.93.06,0,.12,0,.18,0,.69-.08,1.25-.59,1.39-1.27,1.01-4.8,5.3-8.28,10.18-8.28.5,0,1.02.04,1.52.11.51.08,1.01.19,1.5.33.15.05.31.07.46.07.53,0,1.03-.26,1.33-.72.4-.58.35-1.36-.09-1.91-.06-.08-.12-.15-.18-.23-.94-1.26-1.33-2.82-1.1-4.37.42-2.87,2.93-5.04,5.83-5.04.28,0,.58.02.86.06,1.56.23,2.93,1.05,3.87,2.32.94,1.26,1.33,2.82,1.1,4.37-.42,2.88-2.93,5.04-5.83,5.04-.29,0-.58-.02-.87-.06-.07-.01-.16-.02-.24-.02-.62,0-1.2.35-1.47.91ZM17.92,33.54c0-1.52-1.23-2.76-2.76-2.76s-2.76,1.23-2.76,2.76,1.23,2.76,2.76,2.76,2.76-1.23,2.76-2.76ZM39.53,47.8c0,1.66,1.35,3.01,3.01,3.01s3.01-1.35,3.01-3.01-1.35-3.01-3.01-3.01-3.01,1.35-3.01,3.01ZM33.62,24.5c-4.99-.73-9.63,2.72-10.36,7.71-.73,4.99,2.72,9.63,7.71,10.36,4.98.73,9.63-2.72,10.36-7.71.73-4.98-2.72-9.63-7.71-10.36ZM41.56,21.31c2.26,0,4.08-1.83,4.08-4.08s-1.82-4.08-4.08-4.08-4.08,1.82-4.08,4.08,1.83,4.08,4.08,4.08ZM34.08,33.29c0,.34.02,1.5.02,1.5h-.02s-.51-.95-.66-1.22l-2.86-4.84h-2.4v9.64h2.33v-4.49c0-.33-.03-1.58-.03-1.58h.03s.53,1.04.69,1.3l2.83,4.77h2.4v-9.64h-2.33v4.57ZM52.27,35.57h4.23v-8.15c0-.61-.05-2.86-.05-2.86h.05s.95,1.88,1.25,2.35l5.14,8.66h4.36v-17.5h-4.23v8.3c0,.61.05,2.72.05,2.72h-.05s-.93-1.74-1.2-2.23l-5.19-8.79h-4.36v17.5ZM75.52,35.94c1.59,0,2.86-.42,3.92-1.15,1.1-.76,1.84-1.84,2.1-2.96h-3.89c-.34.78-1.03,1.25-2.08,1.25-1.64,0-2.57-1.05-2.81-2.74h9.01c.02-2.55-.71-4.72-2.2-6.09-1.08-.98-2.5-1.57-4.28-1.57-3.82,0-6.44,2.86-6.44,6.61s2.54,6.66,6.68,6.66ZM72.78,27.96c.27-1.49,1.05-2.45,2.57-2.45,1.3,0,2.23.96,2.37,2.45h-4.94ZM87.83,35.72c1.08,0,1.84-.1,2.18-.2v-2.91c-.15,0-.54.02-.88.02-.86,0-1.39-.24-1.39-1.22v-5.87h2.28v-2.5h-2.28v-3.96h-3.89v3.96h-1.66v2.5h1.66v6.73c0,2.69,1.66,3.45,3.99,3.45ZM91.69,35.57h4.33v-6.8h7.27v-3.5h-7.27v-3.55h8.69v-3.65h-13.02v17.5ZM111.22,35.96c4.04,0,6.68-2.86,6.68-6.63s-2.64-6.63-6.68-6.63-6.71,2.86-6.71,6.63,2.69,6.63,6.71,6.63ZM111.2,33.12c-1.74,0-2.64-1.52-2.64-3.79s.91-3.82,2.64-3.82,2.67,1.54,2.67,3.82-.93,3.79-2.67,3.79ZM123.56,35.94c1.74,0,2.84-.69,3.75-1.91h.07v1.54h3.82v-12.53h-3.99v7c0,1.49-.83,2.52-2.2,2.52-1.27,0-1.88-.76-1.88-2.13v-7.39h-3.96v8.22c0,2.79,1.52,4.67,4.41,4.67ZM133.1,35.57h3.99v-6.93c0-1.54.88-2.64,2.2-2.64s1.96.91,1.96,2.23v7.34h3.99v-8.15c0-2.79-1.62-4.75-4.36-4.75-1.74,0-2.94.73-3.87,2.08h-.07v-1.71h-3.84v12.53ZM151.97,35.96c1.64,0,2.94-.78,3.7-2.08h.05v1.69h3.82v-17.5h-3.99v6.39h-.07c-.73-1.05-1.74-1.79-3.5-1.79-3.23,0-5.48,2.72-5.48,6.63,0,4.19,2.28,6.66,5.48,6.66ZM153,32.81c-1.54,0-2.47-1.37-2.47-3.55s.93-3.57,2.52-3.57c1.74,0,2.59,1.52,2.59,3.62s-.98,3.5-2.64,3.5ZM161.44,35.57h3.99v-5.63c0-2.72,1.57-3.92,4.01-3.57h.1v-3.43c-.17-.07-.42-.1-.78-.1-1.52,0-2.54.66-3.43,2.15h-.07v-1.96h-3.82v12.53ZM171.47,39.71h2.59c2.52,0,3.72-1.03,4.72-3.97l4.33-12.7h-3.99l-1.64,5.34c-.39,1.22-.73,2.89-.73,2.89h-.05s-.39-1.66-.78-2.89l-1.69-5.34h-4.21l3.7,9.64c.51,1.32.76,2.06.76,2.59,0,.86-.46,1.32-1.64,1.32h-1.37v3.11ZM53.44,49.83c1.14,0,1.88-.64,1.88-1.51,0-.94-.68-1.23-1.58-1.57-.78-.29-1.1-.48-1.1-.92,0-.5.37-.81,1-.81.76,0,1.17.42,1.21.99h.66c-.05-.82-.61-1.52-1.86-1.52-1.05,0-1.7.56-1.7,1.38s.59,1.13,1.37,1.42c.9.33,1.28.52,1.28,1.05,0,.59-.44.95-1.15.95-.94,0-1.41-.46-1.46-1.23h-.7c.02.96.7,1.77,2.15,1.77ZM57.49,49.83c.77,0,1.41-.39,1.68-1.17h-.63c-.17.44-.57.66-1.02.66-.66,0-1-.39-1-1.09,0-.07,0-.14,0-.21h2.79c.03-.19.05-.39.05-.57,0-.88-.46-1.52-1.44-1.52-1.23,0-2.03,1.07-2.03,2.29,0,.9.53,1.61,1.59,1.61ZM57.87,46.41c.69,0,.95.49.84,1.16h-2.11c.17-.62.59-1.16,1.27-1.16ZM61.34,49.83c.85,0,1.51-.5,1.75-1.41h-.62c-.17.59-.58.9-1.12.9-.61,0-.91-.39-.91-1.01,0-.91.47-1.86,1.34-1.86.57,0,.84.32.85.79h.61c-.02-.7-.46-1.3-1.41-1.3-1.23,0-2.03,1.07-2.03,2.35,0,.91.56,1.54,1.54,1.54ZM64.75,49.81c.49,0,.88-.24,1.16-.62h.01l-.1.53h.61l.73-3.71h-.63l-.46,2.32c-.11.54-.52.95-1.12.95s-.69-.37-.61-.79l.49-2.49h-.62l-.49,2.5c-.15.79.25,1.3,1.03,1.3ZM67.35,49.72h.63l.41-2.06c.15-.73.62-1.09,1.17-1.09.12,0,.19.02.25.04h.03l.08-.61s-.12-.03-.23-.03c-.48,0-.85.27-1.1.7h-.02l.13-.66h-.61l-.72,3.7ZM71.5,49.83c.77,0,1.41-.39,1.68-1.17h-.63c-.17.44-.57.66-1.02.66-.66,0-1-.39-1-1.09,0-.07,0-.14,0-.21h2.79c.03-.19.05-.39.05-.57,0-.88-.46-1.52-1.44-1.52-1.23,0-2.03,1.07-2.03,2.29,0,.9.53,1.61,1.59,1.61ZM71.89,46.41c.69,0,.95.49.84,1.16h-2.11c.17-.62.59-1.16,1.27-1.16ZM75.52,49.72h.61l.11-.61h.03c.19.44.57.71,1.17.71,1.15,0,1.82-1.12,1.82-2.37,0-.92-.48-1.53-1.32-1.53-.46,0-.86.21-1.17.58h-.01c.04-.17.09-.39.12-.57l.26-1.35h-.63l-1,5.13ZM77.36,49.32c-.63,0-.93-.5-.93-1.15,0-.85.47-1.72,1.34-1.72.55,0,.85.39.85,1.01,0,.85-.44,1.85-1.25,1.85ZM79.63,51.01c.46,0,.79-.17,1.23-.95l2.34-4.05h-.69l-1.14,2.08c-.24.43-.46.98-.46.98h-.02s-.05-.62-.12-1.03l-.36-2.02h-.65l.69,3.52s-.23.46-.23.48c-.19.34-.37.46-.61.46-.17,0-.3-.04-.37-.08h-.03l-.11.52c.12.06.32.1.53.1ZM84.86,49.72h1.87c1.81,0,2.81-1.19,2.81-3.08,0-1.17-.68-2.05-1.98-2.05h-1.7l-1,5.13ZM85.67,49.12l.78-3.95h1.01c.96,0,1.38.61,1.38,1.47,0,1.4-.61,2.48-2.06,2.48h-1.11ZM91.5,49.83c.77,0,1.41-.39,1.68-1.17h-.63c-.17.44-.57.66-1.02.66-.66,0-1-.39-1-1.09,0-.07,0-.14,0-.21h2.79c.03-.19.05-.39.05-.57,0-.88-.46-1.52-1.44-1.52-1.23,0-2.03,1.07-2.03,2.29,0,.9.53,1.61,1.59,1.61ZM91.89,46.41c.69,0,.95.49.84,1.16h-2.11c.17-.62.59-1.16,1.27-1.16ZM95.3,49.82c.9,0,1.49-.46,1.48-1.16-.01-.67-.54-.92-1.15-1.12-.58-.18-.87-.3-.87-.61s.21-.52.72-.52.8.2.81.6h.63c-.02-.63-.49-1.08-1.44-1.08-.86,0-1.38.46-1.37,1.07.01.63.48.84,1.17,1.06.59.18.83.34.83.64,0,.34-.23.63-.82.63s-.94-.19-.99-.73h-.64c.05.73.53,1.23,1.61,1.23ZM97.33,49.72h.63l.72-3.7h-.63l-.72,3.7ZM98.17,45.34h.66l.14-.74h-.66l-.14.74ZM100.27,51.03c.87,0,1.5-.36,1.69-1.32l.72-3.69h-.61l-.12.61c-.19-.43-.57-.69-1.12-.69-.98,0-1.79.89-1.79,2.13,0,.83.5,1.5,1.34,1.5.48,0,.83-.23,1.11-.57h0c-.04.17-.1.41-.1.43l-.04.26c-.1.54-.48.87-1.06.87s-.84-.24-.89-.57h-.6c.04.6.55,1.04,1.48,1.04ZM100.53,49.06c-.59,0-.87-.39-.87-.97,0-.83.42-1.65,1.19-1.65.63,0,.95.37.95.95,0,.72-.39,1.66-1.27,1.66ZM102.87,49.72h.63l.46-2.33c.12-.59.59-.94,1.14-.94s.75.3.65.8l-.49,2.47h.63l.5-2.48c.17-.82-.33-1.31-1.06-1.31-.5,0-.93.25-1.21.64h-.01l.12-.55h-.62l-.72,3.7Z"/><rect class="cls-1" width="194" height="64"/></svg>