<?xml version="1.0" encoding="UTF-8"?><svg id="Layer_1" xmlns="http://www.w3.org/2000/svg" width="310" height="144" xmlns:xlink="http://www.w3.org/1999/xlink" viewBox="0 0 310 144"><defs><style>.cls-1{fill:none;}.cls-1,.cls-2,.cls-3,.cls-4,.cls-5{stroke-width:0px;}.cls-2{fill:url(#linear-gradient);}.cls-3{fill:#022b6b;}.cls-4{fill:#fff;}.cls-5{fill:#67ce4d;}</style><linearGradient id="linear-gradient" x1="180.34" y1="773.41" x2="113.09" y2="744.41" gradientTransform="translate(131.82 -732.83) rotate(8.36)" gradientUnits="userSpaceOnUse"><stop offset=".26" stop-color="#035ce6"/><stop offset=".32" stop-color="#1478c0"/><stop offset=".4" stop-color="#2ba08d"/><stop offset=".48" stop-color="#3dbf64"/><stop offset=".55" stop-color="#4bd547"/><stop offset=".61" stop-color="#53e336"/><stop offset=".66" stop-color="#56e830"/><stop offset=".68" stop-color="#5ce058"/><stop offset=".71" stop-color="#63d884"/><stop offset=".73" stop-color="#6ad1aa"/><stop offset=".76" stop-color="#6fcbc9"/><stop offset=".79" stop-color="#73c7e0"/><stop offset=".82" stop-color="#75c4f1"/><stop offset=".85" stop-color="#77c2fb"/><stop offset=".89" stop-color="#78c2ff"/></linearGradient></defs><path class="cls-3" d="M15,85.08h9.32l11.1,18.8c.58,1.05,2.57,4.77,2.57,4.77h.1s-.1-4.5-.1-5.81v-17.75h9.06v37.44h-9.32l-11-18.54c-.63-1-2.67-5.03-2.67-5.03h-.1s.1,4.82.1,6.13v17.44h-9.06v-37.44Z"/><path class="cls-3" d="M50.45,109.06c0-8.01,5.6-14.14,13.77-14.14,3.82,0,6.86,1.26,9.17,3.35,3.19,2.93,4.77,7.59,4.71,13.04h-19.27c.52,3.61,2.51,5.87,6.02,5.87,2.25,0,3.72-1,4.45-2.67h8.33c-.58,2.41-2.15,4.71-4.5,6.34-2.25,1.57-4.98,2.46-8.38,2.46-8.85,0-14.3-6.13-14.3-14.24ZM69.46,106.23c-.31-3.19-2.3-5.24-5.08-5.24-3.25,0-4.92,2.04-5.5,5.24h10.58Z"/><path class="cls-3" d="M82.55,115.45v-14.4h-3.56v-5.34h3.56v-8.48h8.33v8.48h4.87v5.34h-4.87v12.57c0,2.09,1.15,2.62,2.99,2.62.73,0,1.57-.05,1.89-.05v6.23c-.73.21-2.36.42-4.66.42-4.98,0-8.54-1.62-8.54-7.38Z"/><path class="cls-3" d="M99.36,85.08h27.86v7.8h-18.59v7.59h15.55v7.49h-15.55v14.56h-9.27v-37.44Z"/><path class="cls-3" d="M126.8,109.17c0-8.06,5.76-14.19,14.35-14.19s14.3,6.13,14.3,14.19-5.66,14.19-14.3,14.19-14.35-6.13-14.35-14.19ZM146.81,109.17c0-4.87-1.99-8.17-5.71-8.17s-5.66,3.3-5.66,8.17,1.94,8.12,5.66,8.12,5.71-3.25,5.71-8.12Z"/><path class="cls-3" d="M158.12,113.3v-17.6h8.48v15.82c0,2.93,1.31,4.56,4.03,4.56,2.93,0,4.71-2.2,4.71-5.39v-14.98h8.54v26.81h-8.17v-3.3h-.16c-1.94,2.62-4.29,4.09-8.01,4.09-6.18,0-9.43-4.03-9.43-10Z"/><path class="cls-3" d="M187.96,95.71h8.22v3.67h.16c1.99-2.88,4.56-4.45,8.27-4.45,5.87,0,9.32,4.19,9.32,10.16v17.44h-8.54v-15.71c0-2.83-1.41-4.77-4.19-4.77s-4.71,2.36-4.71,5.66v14.82h-8.54v-26.81Z"/><path class="cls-3" d="M216.61,109.11c0-8.38,4.82-14.19,11.73-14.19,3.77,0,5.92,1.57,7.49,3.82h.16v-13.67h8.54v37.44h-8.17v-3.61h-.1c-1.62,2.78-4.4,4.45-7.91,4.45-6.86,0-11.73-5.29-11.73-14.24ZM236.19,109.11c0-4.5-1.83-7.75-5.55-7.75-3.4,0-5.39,3.14-5.39,7.65s1.99,7.59,5.29,7.59c3.56,0,5.66-3.09,5.66-7.49Z"/><path class="cls-3" d="M248.6,95.71h8.17v4.19h.16c1.89-3.19,4.08-4.61,7.33-4.61.79,0,1.31.05,1.68.21v7.33h-.21c-5.24-.73-8.59,1.83-8.59,7.65v12.04h-8.54v-26.81Z"/><path class="cls-3" d="M270.07,124.72h2.93c2.51,0,3.51-1,3.51-2.83,0-1.15-.52-2.72-1.62-5.55l-7.91-20.63h9.01l3.61,11.42c.84,2.62,1.68,6.18,1.68,6.18h.1s.73-3.56,1.57-6.18l3.51-11.42h8.54l-9.27,27.18c-2.15,6.28-4.71,8.48-10.11,8.48h-5.55v-6.65Z"/><path class="cls-5" d="M168.13,75.92c-4.28,1.32-8.89,1.72-13.61,1.03-8.75-1.29-16.15-6.11-20.91-12.81-1.93-2.72-3.43-5.73-4.42-8.95.18,0,.37.02.56.02.77,0,1.53-.1,2.25-.28,1.19,3.62,3.1,6.95,5.58,9.8,4.32,4.97,10.35,8.48,17.35,9.5,4.16.61,8.23.28,12.03-.83.28.9.67,1.74,1.17,2.52Z"/><path class="cls-2" d="M176.61,78.71c-.4,0-.81-.03-1.21-.09-4.5-.66-7.63-4.86-6.97-9.37.15-1.02.49-2,1.01-2.9.59-1.03.46-2.32-.32-3.2-.53-.6-1.29-.93-2.06-.93-.36,0-.73.07-1.08.22-2.2.94-4.52,1.41-6.89,1.41-.87,0-1.75-.06-2.61-.19-7.36-1.08-13.33-6.7-14.86-13.99-.24-1.16-1.2-2.03-2.38-2.17-.1-.01-.21-.02-.31-.02-1.06,0-2.04.61-2.5,1.59-1.21,2.6-3.82,4.29-6.66,4.29-.36,0-.72-.03-1.08-.08-1.94-.28-3.65-1.31-4.82-2.88-1.17-1.57-1.66-3.51-1.37-5.45.53-3.58,3.64-6.27,7.25-6.27.36,0,.72.03,1.08.08,1.94.28,3.65,1.31,4.82,2.88.31.41.57.86.78,1.31.45.98,1.43,1.6,2.5,1.6.1,0,.21,0,.31-.02,1.18-.13,2.14-1.01,2.38-2.17,1.73-8.21,9.06-14.17,17.42-14.17.87,0,1.75.06,2.61.19.87.13,1.73.32,2.56.57.26.08.53.12.79.12.9,0,1.77-.45,2.29-1.23.67-1.01.61-2.33-.16-3.27-.1-.13-.21-.26-.3-.39-1.61-2.16-2.28-4.82-1.89-7.49.72-4.92,5.01-8.63,9.97-8.63.49,0,.99.04,1.48.11,2.67.39,5.02,1.8,6.63,3.96s2.28,4.82,1.89,7.49c-.72,4.92-5.01,8.63-9.97,8.63-.49,0-.99-.04-1.48-.11-.14-.02-.27-.03-.41-.03-1.05,0-2.06.59-2.52,1.56-.52,1.09-.31,2.39.58,3.2.82.75,1.58,1.6,2.25,2.5,2.84,3.82,4.03,8.52,3.33,13.23-.5,3.41-1.99,6.6-4.31,9.21-.79.89-.92,2.17-.33,3.2.5.87,1.41,1.38,2.38,1.38.18,0,.36-.02.55-.05.53-.11,1.06-.16,1.6-.16.4,0,.81.03,1.21.09,4.5.66,7.63,4.86,6.97,9.37-.59,4.02-4.1,7.06-8.16,7.06Z"/><circle class="cls-3" cx="159.06" cy="46.03" r="15.63"/><path class="cls-4" d="M152,37.78h4.11l4.89,8.28c.25.46,1.13,2.1,1.13,2.1h.05s-.05-1.98-.05-2.56v-7.82h3.99v16.5h-4.11l-4.84-8.17c-.28-.44-1.18-2.21-1.18-2.21h-.05s.05,2.12.05,2.7v7.68h-3.99v-16.5Z"/><rect class="cls-1" width="310" height="144"/></svg>